<?xml version="1.0" encoding="UTF-8"?>
<svg version="1.1" xmlns="http://www.w3.org/2000/svg" width="196" height="189">
<path d="M0 0 C7.92761817 -0.32567763 15.8524078 -0.5737323 23.785079 -0.72537041 C27.46973158 -0.79819087 31.14978396 -0.89672985 34.83178711 -1.05615234 C58.61279939 -2.05956716 58.61279939 -2.05956716 64.19509888 1.3347168 C67.89246491 4.99073279 69.41007696 9.13437972 71 14 C71.97927613 15.77358929 72.99079951 17.53068073 74.0625 19.25 C76 22.72053872 76 22.72053872 76 25 C76.66 25 77.32 25 78 25 C80.31 29.29 82.62 33.58 85 38 C85.99 38 86.98 38 88 38 C88.28359375 37.42765625 88.5671875 36.8553125 88.859375 36.265625 C91.52909118 30.96276409 94.23155935 25.84667472 97.9375 21.1875 C101.79675064 16.24565437 104.34389153 10.65129462 107 5 C107.66 5 108.32 5 109 5 C109.66 3.35 110.32 1.7 111 0 C131.13 0 151.26 0 172 0 C172 6.29057343 171.41926708 7.61912085 168.125 12.625 C164.8105736 17.67021498 164.8105736 17.67021498 162 23 C161.34 23 160.68 23 160 23 C159.6596875 23.99 159.6596875 23.99 159.3125 25 C157.6121185 28.88658628 155.60376916 32.63679817 153 36 C152.34 36 151.68 36 151 36 C150.91878906 36.52722656 150.83757812 37.05445313 150.75390625 37.59765625 C149.71466488 40.90922849 147.84797924 43.5763252 145.9375 46.4375 C145.11873701 47.68680945 144.30105277 48.93682644 143.484375 50.1875 C142.86272461 51.13689453 142.86272461 51.13689453 142.22851562 52.10546875 C137.58723051 59.26293546 133.20152702 66.57730227 129 74 C128.02389533 75.62684112 127.04444764 77.25167896 126.0625 78.875 C123.26105193 83.52269502 120.60001063 88.23714866 118 93 C117.34 93 116.68 93 116 93 C114.02875101 97.12505041 113.75655357 100.44361499 113.77294922 104.9934082 C113.77265717 105.67688828 113.77236511 106.36036835 113.77206421 107.06455994 C113.77345083 109.31009891 113.78898013 111.55530067 113.8046875 113.80078125 C113.80842001 115.36305052 113.81126586 116.92532215 113.81326294 118.4875946 C113.82088065 122.58935059 113.84051304 126.6909638 113.8626709 130.79266357 C113.88316953 134.98219878 113.89227323 139.17175717 113.90234375 143.36132812 C113.92376078 151.5742841 113.95787412 159.78712426 114 168 C107.5789225 168.98505166 101.42316962 169.05659628 94.9375 168.87890625 C93.90560547 168.85529526 92.87371094 168.83168427 91.81054688 168.80735779 C88.54020525 168.73126694 85.27013379 168.64701016 82 168.5625 C79.77214829 168.50922458 77.5442837 168.45648463 75.31640625 168.40429688 C69.87743989 168.27572643 64.43867148 168.14046512 59 168 C59.02664734 167.1674469 59.05329468 166.3348938 59.08074951 165.47711182 C59.32363142 157.53715776 59.50508914 149.59849224 59.62174606 141.65564346 C59.68374741 137.57412482 59.76745491 133.49573383 59.90527344 129.41601562 C60.52369494 110.62014116 60.88219613 95.1393679 48.41604614 79.77105713 C46.46962437 77.33665612 44.86530924 74.7241624 43.25 72.0625 C42.71632812 71.23492187 42.18265625 70.40734375 41.6328125 69.5546875 C39.75828976 66.62182178 37.94088776 63.65701057 36.125 60.6875 C32.88298264 55.39325418 29.53773697 50.17546506 26.15600586 44.96972656 C23.60065779 41.00851814 21.27731807 36.9743324 19.0546875 32.8203125 C17.93180637 30.77221691 17.93180637 30.77221691 15.8125 28.3125 C13.7346332 25.66142856 12.89976975 23.22417494 12 20 C11.34 20 10.68 20 10 20 C9.32845067 18.71086513 8.66291141 17.41859796 8 16.125 C7.62875 15.40570313 7.2575 14.68640625 6.875 13.9453125 C6 12 6 12 6 10 C5.34 10 4.68 10 4 10 C0 3.375 0 3.375 0 0 Z M24 15 C24.99 15.495 24.99 15.495 26 16 C27.2776108 18.33843243 28.47161883 20.6643111 29.625 23.0625 C29.94984375 23.72572266 30.2746875 24.38894531 30.609375 25.07226562 C31.41165115 26.71221247 32.2065288 28.35577492 33 30 C33.66 30 34.32 30 35 30 C35.25523438 30.86496094 35.51046875 31.72992188 35.7734375 32.62109375 C37.04566212 36.12578895 38.62945593 38.91812677 40.625 42.0625 C41.3452518 43.20690558 42.06529801 44.35144057 42.78515625 45.49609375 C43.1527002 46.07601074 43.52024414 46.65592773 43.89892578 47.25341797 C45.64752068 50.02713147 47.35207568 52.82763937 49.0625 55.625 C52.10590208 60.57576017 55.20679473 65.48527921 58.359375 70.3671875 C59.56950646 72.30916037 60.70905877 74.29553579 61.80761719 76.30273438 C63.18690936 78.74111034 64.52696617 80.6343152 66.34179688 82.81884766 C75.44910668 94.19924321 73.98883451 106.41627285 73.5 120.375 C73.41987719 123.90764374 73.35258609 127.4403438 73.28771973 130.97329712 C73.24292433 133.15731049 73.18684791 135.34113223 73.11755371 137.52450562 C72.95283007 143.15364555 73.12585177 148.43353707 74 154 C76.80800614 154.79529242 79.30729759 155.1282074 82.22265625 155.1328125 C83.00833984 155.13410156 83.79402344 155.13539063 84.60351562 155.13671875 C85.41498047 155.13285156 86.22644531 155.12898437 87.0625 155.125 C87.87783203 155.12886719 88.69316406 155.13273438 89.53320312 155.13671875 C90.31759766 155.13542969 91.10199219 155.13414062 91.91015625 155.1328125 C92.97955444 155.13112061 92.97955444 155.13112061 94.07055664 155.12939453 C96.22010804 155.06665285 96.22010804 155.06665285 99 154 C98.99920441 153.26830093 98.99840881 152.53660187 98.99758911 151.7827301 C98.99537231 144.85392981 99.02201339 137.92576175 99.0802784 130.99722385 C99.10923067 127.43588007 99.12740413 123.87518933 99.12011719 120.3137207 C99.11220952 116.20982302 99.15267004 112.10759244 99.1953125 108.00390625 C99.18621857 106.73793106 99.17712463 105.47195587 99.16775513 104.1676178 C99.30156985 95.957434 100.8306166 91.32944273 106 85 C106.96417718 83.32640791 107.9282583 81.65261863 108.86914062 79.96582031 C111.5228753 75.35272194 114.41859457 70.88027395 117.25 66.375 C118.59923973 64.22153045 119.94820069 62.06788621 121.296875 59.9140625 C121.93947266 58.88829102 122.58207031 57.86251953 123.24414062 56.80566406 C128.41474118 48.54363104 133.46850222 40.23233825 138.33203125 31.78515625 C140.31053176 28.48147741 142.47140125 25.34199444 144.73828125 22.23046875 C146.48007067 19.35457497 146.48007067 19.35457497 148 13 C138.76 13 129.52 13 120 13 C119.67 13.99 119.34 14.98 119 16 C118.34 16 117.68 16 117 16 C116.67 17.98 116.34 19.96 116 22 C115.01 22.33 114.02 22.66 113 23 C111.29339633 25.50719921 111.29339633 25.50719921 109.6875 28.5625 C107.61507881 32.25454447 105.56584937 35.74247974 102.9375 39.0625 C99.95680929 42.87335656 97.77786684 46.96408026 95.5234375 51.234375 C93.26793312 55.32898294 90.66934951 59.16635975 88 63 C86.25390625 62.890625 86.25390625 62.890625 84 62 C82.47407596 59.92638346 81.19975944 57.97293859 79.9375 55.75 C79.42993164 54.88955078 79.42993164 54.88955078 78.91210938 54.01171875 C77.93174113 52.34679937 76.96563698 50.67350639 76 49 C74.20130402 45.9771301 72.37287979 42.97739864 70.5 40 C68.62715086 37.02265008 66.80642807 34.01811077 65 31 C63.69233851 28.83040969 62.37954925 26.66390433 61.0625 24.5 C60.39347656 23.3965625 59.72445312 22.293125 59.03515625 21.15625 C58.36355469 20.1146875 57.69195312 19.073125 57 18 C56.27103516 16.57494141 56.27103516 16.57494141 55.52734375 15.12109375 C51.17786654 11.47075971 45.96605361 12.40500354 40.5 12.5625 C38.78876953 12.57120117 38.78876953 12.57120117 37.04296875 12.58007812 C30.22515025 12.5562751 30.22515025 12.5562751 24 15 Z " fill="#203A4E" transform="translate(11,18)"/>
<path d="M0 0 C1.73056641 -0.02513672 1.73056641 -0.02513672 3.49609375 -0.05078125 C6.5625 0.3125 6.5625 0.3125 8.328125 1.578125 C9.66585742 3.45772372 10.79715902 5.33413959 11.875 7.375 C16.2811675 15.51654532 21.16421972 23.32464434 26.2421875 31.0625 C27.5625 33.3125 27.5625 33.3125 27.5625 35.3125 C28.2225 35.3125 28.8825 35.3125 29.5625 35.3125 C29.85382813 35.84617188 30.14515625 36.37984375 30.4453125 36.9296875 C33.2915406 42.10302034 36.27757294 47.15254019 39.42578125 52.1484375 C40.5625 54.3125 40.5625 54.3125 40.5625 57.3125 C42.45861973 57.24770859 42.45861973 57.24770859 44.5625 56.3125 C46.48240886 53.7283768 46.48240886 53.7283768 48.125 50.5625 C48.70378906 49.51578125 49.28257813 48.4690625 49.87890625 47.390625 C50.43449219 46.37484375 50.99007812 45.3590625 51.5625 44.3125 C54.36889288 39.50269949 57.39134184 34.82593756 60.375 30.125 C63.61606224 25.01003212 66.85085003 19.89776516 69.9375 14.6875 C77.5953125 1.79609375 77.5953125 1.79609375 80.5625 0.3125 C82.60305005 0.24184383 84.64584257 0.22828024 86.6875 0.25 C87.78320312 0.25902344 88.87890625 0.26804688 90.0078125 0.27734375 C91.27238281 0.29474609 91.27238281 0.29474609 92.5625 0.3125 C93.24609375 2.00390625 93.24609375 2.00390625 93.5625 4.3125 C92.41015625 6.65234375 92.41015625 6.65234375 90.625 9.25 C88.47813222 12.44012482 86.35147563 15.61903284 84.3828125 18.921875 C84.02695068 19.51750244 83.67108887 20.11312988 83.30444336 20.72680664 C82.28845915 22.43532558 81.27503809 24.14536793 80.26171875 25.85546875 C79.42060547 27.07169922 79.42060547 27.07169922 78.5625 28.3125 C77.9025 28.3125 77.2425 28.3125 76.5625 28.3125 C76.45421875 29.04984375 76.3459375 29.7871875 76.234375 30.546875 C75.52238139 33.47763941 74.56068548 35.12945835 72.8125 37.5625 C70.17796128 41.34688535 67.8968219 45.19723292 65.73828125 49.26953125 C64.49681774 51.42662566 63.05657331 53.32429306 61.5625 55.3125 C60.32682997 57.42258105 59.18015391 59.56856594 58.03019714 61.72645569 C56.5625 64.3125 56.5625 64.3125 55.01460266 66.52000427 C50.269596 73.42147624 49.70519344 79.04435945 49.79296875 87.28515625 C49.77596672 89.09154823 49.77596672 89.09154823 49.75862122 90.93443298 C49.72807477 94.74840319 49.73771138 98.56095002 49.75 102.375 C49.73584278 106.22072581 49.71353112 110.06630744 49.68782043 113.91197205 C49.67474734 116.29797764 49.67004669 118.68404611 49.67436218 121.07008362 C49.67378311 122.13887253 49.67320404 123.20766144 49.67260742 124.30883789 C49.67516037 125.25352432 49.67771332 126.19821075 49.68034363 127.17152405 C49.5625 129.3125 49.5625 129.3125 48.5625 130.3125 C46.70962498 130.38476502 44.85416122 130.3963122 43 130.375 C41.98808594 130.36597656 40.97617188 130.35695312 39.93359375 130.34765625 C38.75990234 130.33025391 38.75990234 130.33025391 37.5625 130.3125 C35.07703092 124.60038747 35.43684559 119.36754062 35.6484375 113.28125 C35.6932496 111.08597435 35.7361565 108.89065915 35.77734375 106.6953125 C35.85115403 103.26288986 35.93680341 99.83252628 36.05615234 96.40136719 C36.53092486 82.05867609 36.48010364 71.96383869 27.5625 60.3125 C26.31844445 58.36359109 25.08691538 56.40655593 23.875 54.4375 C22.77151906 52.72872365 21.66741751 51.0203478 20.5625 49.3125 C19.72600785 47.98114614 18.89242865 46.64795522 18.0625 45.3125 C16.21123322 42.33852949 14.32864946 39.3862591 12.4375 36.4375 C5.27158089 25.19469037 -1.61649148 13.76718942 -8.4375 2.3125 C-5.65940605 -0.46559395 -3.86994797 0.01294297 0 0 Z " fill="#7B8889" transform="translate(54.4375,36.6875)"/>
<path d="M0 0 C1.73056641 -0.02513672 1.73056641 -0.02513672 3.49609375 -0.05078125 C6.5625 0.3125 6.5625 0.3125 8.46484375 1.5546875 C9.8644605 3.79606664 9.83781619 5.12830887 9.6875 7.75 C9.53029457 10.84694689 9.67925372 13.32984525 10.5625 16.3125 C9.5725 16.6425 8.5825 16.9725 7.5625 17.3125 C7.3975 17.9725 7.2325 18.6325 7.0625 19.3125 C6.8975 19.9725 6.7325 20.6325 6.5625 21.3125 C5.5725 21.6425 4.5825 21.9725 3.5625 22.3125 C-0.4375 15.64583333 -4.4375 8.97916667 -8.4375 2.3125 C-5.65940605 -0.46559395 -3.86994797 0.01294297 0 0 Z " fill="#818D8E" transform="translate(54.4375,36.6875)"/>
<path d="M0 0 C1.24492612 2.48985223 0.92459559 3.63849974 0.56860352 6.38037109 C-0.08528487 12.24010847 -0.12683326 18.02315292 -0.09765625 23.9140625 C-0.0962413 25.00971527 -0.09482635 26.10536804 -0.09336853 27.23422241 C-0.08781771 30.69784395 -0.07527459 34.16139834 -0.0625 37.625 C-0.05747864 39.98828031 -0.05291685 42.35156164 -0.04882812 44.71484375 C-0.03786444 50.47658501 -0.02117606 56.2382877 0 62 C-1.485 62.495 -1.485 62.495 -3 63 C-3.06943402 55.08116316 -3.12277728 47.16245297 -3.15543652 39.24338722 C-3.17110937 35.56644585 -3.19237658 31.88971235 -3.22631836 28.21289062 C-3.25885497 24.66619187 -3.27684081 21.11969336 -3.28463173 17.5728569 C-3.29018558 16.21800965 -3.30103069 14.86317367 -3.31719017 13.50841141 C-3.33888603 11.61460255 -3.34022473 9.72059325 -3.34057617 7.82666016 C-3.34723801 6.74744293 -3.35389984 5.66822571 -3.36076355 4.55630493 C-3.24171158 3.7127243 -3.12265961 2.86914368 -3 2 C-2.01 1.34 -1.02 0.68 0 0 Z " fill="#445F6C" transform="translate(113,110)"/>
<path d="M0 0 C20.46 0 40.92 0 62 0 C62.495 1.485 62.495 1.485 63 3 C62.34 3.33 61.68 3.66 61 4 C61 3.34 61 2.68 61 2 C42.85 2 24.7 2 6 2 C5.67 3.65 5.34 5.3 5 7 C2 6 2 6 0 3 C0 2.01 0 1.02 0 0 Z " fill="#283744" transform="translate(11,18)"/>
<path d="M0 0 C0.66 0.33 1.32 0.66 2 1 C1.6587652 4.07111316 1.40574406 5.6079231 -0.85546875 7.79296875 C-3.3476766 10.35780925 -4.55901563 12.82700163 -6.0625 16.0625 C-9.04754399 22.46807185 -9.04754399 22.46807185 -12 25 C-12.66 24.67 -13.32 24.34 -14 24 C-12.50084582 19.8502794 -10.45880523 16.30099177 -8.125 12.5625 C-7.44695312 11.47066406 -6.76890625 10.37882812 -6.0703125 9.25390625 C-4.08803882 6.13837044 -2.06094666 3.06369425 0 0 Z " fill="#384C59" transform="translate(145,56)"/>
<path d="M0 0 C1.32 0 2.64 0 4 0 C4.99 1.98 5.98 3.96 7 6 C4 8 4 8 1 8 C1 8.66 1 9.32 1 10 C0.01 10 -0.98 10 -2 10 C-3.39195915 5.82412255 -1.82323219 3.86525224 0 0 Z " fill="#1A354B" transform="translate(61,88)"/>
<path d="M0 0 C0.99 0 1.98 0 3 0 C2.36734012 2.95241276 1.34491395 5.3101721 0 8 C-0.68960962 9.99220557 -1.36079057 11.99105606 -2 14 C-3.65 13.67 -5.3 13.34 -7 13 C-3.535 6.565 -3.535 6.565 0 0 Z " fill="#838D8E" transform="translate(126,48)"/>
<path d="M0 0 C2 2 2 2 2 3 C2.2784375 3.9590625 2.2784375 3.9590625 2.5625 4.9375 C3 7 3 7 2 9 C1.34 9 0.68 9 0 9 C-0.66 10.65 -1.32 12.3 -2 14 C-2.33 14 -2.66 14 -3 14 C-2.88655624 11.8535247 -2.75893655 9.70779408 -2.625 7.5625 C-2.52058594 5.77005859 -2.52058594 5.77005859 -2.4140625 3.94140625 C-2.27742187 2.97074219 -2.14078125 2.00007813 -2 1 C-1.34 0.67 -0.68 0.34 0 0 Z " fill="#314451" transform="translate(171,32)"/>
<path d="M0 0 C5.07421561 0.71021905 10.20742485 0.96313285 15.31640625 1.32421875 C15.31640625 1.65421875 15.31640625 1.98421875 15.31640625 2.32421875 C8.05640625 2.98421875 0.79640625 3.64421875 -6.68359375 4.32421875 C-7.01359375 3.00421875 -7.34359375 1.68421875 -7.68359375 0.32421875 C-4.62669026 -0.69474908 -3.09374395 -0.51451033 0 0 Z " fill="#10283A" transform="translate(39.68359375,27.67578125)"/>
<path d="M0 0 C0.66 0.66 1.32 1.32 2 2 C1.46428571 5.53571429 1.46428571 5.53571429 0 7 C-0.23287008 8.68183948 -0.41264166 10.3712416 -0.5625 12.0625 C-0.68818359 13.44115234 -0.68818359 13.44115234 -0.81640625 14.84765625 C-0.87699219 15.55792969 -0.93757813 16.26820312 -1 17 C-1.33 17 -1.66 17 -2 17 C-2.07347656 16.00419922 -2.07347656 16.00419922 -2.1484375 14.98828125 C-2.71125812 8.2887764 -2.71125812 8.2887764 -5 2 C-3.35 1.34 -1.7 0.68 0 0 Z " fill="#848F90" transform="translate(93,104)"/>
<path d="M0 0 C0.33 0.66 0.66 1.32 1 2 C0.0625 4.125 0.0625 4.125 -1 6 C-1.99 6 -2.98 6 -4 6 C-3.67 6.66 -3.34 7.32 -3 8 C-4.39195915 10.7839183 -6.15575779 10.97898997 -9 12 C-7.28667665 4.90194611 -7.28667665 4.90194611 -3.4375 2.3125 C-2.79683594 1.87550781 -2.15617187 1.43851562 -1.49609375 0.98828125 C-0.75552734 0.49908203 -0.75552734 0.49908203 0 0 Z " fill="#768586" transform="translate(116,71)"/>
<path d="M0 0 C0.33 0 0.66 0 1 0 C1.84349132 7.47743661 2.39900513 13.80298461 0 21 C-0.33 21 -0.66 21 -1 21 C-1.09733092 13.90565767 -1.10087193 7.01805857 0 0 Z " fill="#6E7A7C" transform="translate(92,137)"/>
<path d="M0 0 C0.33 0 0.66 0 1 0 C1.1875 2.875 1.1875 2.875 1 6 C0.01 6.66 -0.98 7.32 -2 8 C-3.01529541 10.32671865 -4.01488198 12.6603447 -5 15 C-6.6875 16.9375 -6.6875 16.9375 -8 18 C-8.66 17.67 -9.32 17.34 -10 17 C-9.46375 16.236875 -8.9275 15.47375 -8.375 14.6875 C-5.23305689 9.99718924 -2.65583887 4.97527147 0 0 Z " fill="#455660" transform="translate(157,35)"/>
<path d="M0 0 C0.99 0.33 1.98 0.66 3 1 C3 3 3 3 1.66796875 4.39453125 C1.11753906 4.92433594 0.56710938 5.45414063 0 6 C-0.92044862 7.21084367 -1.81685748 8.44036342 -2.6875 9.6875 C-3.12449219 10.31011719 -3.56148438 10.93273438 -4.01171875 11.57421875 C-4.33785156 12.04472656 -4.66398437 12.51523437 -5 13 C-5.33 12.34 -5.66 11.68 -6 11 C-5.0337499 8.98347806 -4.03291676 6.98320018 -3 5 C-3 4.34 -3 3.68 -3 3 C-2.34 3 -1.68 3 -1 3 C-0.67 2.01 -0.34 1.02 0 0 Z " fill="#475D67" transform="translate(124,37)"/>
<path d="M0 0 C2.97 0.495 2.97 0.495 6 1 C6.33 2.65 6.66 4.3 7 6 C7.66 6 8.32 6 9 6 C9 7.65 9 9.3 9 11 C8.01 11.33 7.02 11.66 6 12 C5.67 9.69 5.34 7.38 5 5 C3.68 4.67 2.36 4.34 1 4 C0.67 2.68 0.34 1.36 0 0 Z " fill="#1C3248" transform="translate(80,37)"/>
<path d="M0 0 C3.67230705 3.07999946 4.56802365 5.2482602 5 10 C3.68 10 2.36 10 1 10 C0 2.25 0 2.25 0 0 Z " fill="#727F81" transform="translate(63,42)"/>
<path d="M0 0 C0.99 0 1.98 0 3 0 C2.39595755 3.82560219 1.7294677 5.2705323 -1 8 C-2.32594105 8.36162029 -3.65938457 8.69728039 -5 9 C-3.76067171 5.56801397 -2.49698489 2.69674368 0 0 Z " fill="#485967" transform="translate(122,93)"/>
<path d="M0 0 C0.33 0.66 0.66 1.32 1 2 C1.66 2.33 2.32 2.66 3 3 C1.865625 3.12375 0.73125 3.2475 -0.4375 3.375 C-2.2009375 3.684375 -2.2009375 3.684375 -4 4 C-4.33 4.66 -4.66 5.32 -5 6 C-5.66 6 -6.32 6 -7 6 C-7.33 7.32 -7.66 8.64 -8 10 C-8.25 4.375 -8.25 4.375 -6 1 C-2.875 0.3125 -2.875 0.3125 0 0 Z " fill="#445560" transform="translate(135,28)"/>
<path d="M0 0 C0.99 0 1.98 0 3 0 C3 1.65 3 3.3 3 5 C2.01 5 1.02 5 0 5 C0.33 6.65 0.66 8.3 1 10 C0.67 9.34 0.34 8.68 0 8 C-0.66 8 -1.32 8 -2 8 C-2.66 6.68 -3.32 5.36 -4 4 C-3.34 4 -2.68 4 -2 4 C-1.34 2.68 -0.68 1.36 0 0 Z " fill="#2F4358" transform="translate(17,20)"/>
<path d="M0 0 C1.32 0.33 2.64 0.66 4 1 C1.69 3.97 -0.62 6.94 -3 10 C-4 7 -4 7 -3.22265625 5.17578125 C-2.1484375 3.45052083 -1.07421875 1.72526042 0 0 Z " fill="#3E525B" transform="translate(115,51)"/>
<path d="M0 0 C1.32 0.99 2.64 1.98 4 3 C3.67 4.32 3.34 5.64 3 7 C1.68 7 0.36 7 -1 7 C-1.625 5.1875 -1.625 5.1875 -2 3 C-1.34 2.01 -0.68 1.02 0 0 Z " fill="#1F3445" transform="translate(90,49)"/>
<path d="M0 0 C0.99 0 1.98 0 3 0 C3 1.65 3 3.3 3 5 C2.01 5 1.02 5 0 5 C-0.66 5.66 -1.32 6.32 -2 7 C-2 6.34 -2 5.68 -2 5 C-2.66 4.67 -3.32 4.34 -4 4 C-4.33 3.34 -4.66 2.68 -5 2 C-3.35 2 -1.7 2 0 2 C0 1.34 0 0.68 0 0 Z " fill="#182C3C" transform="translate(180,18)"/>
<path d="M0 0 C0.66 0 1.32 0 2 0 C3.04005702 3.38018531 3.08004482 6.4780279 3 10 C0.9375 7.8125 0.9375 7.8125 -1 5 C-0.75 2.1875 -0.75 2.1875 0 0 Z " fill="#2B404D" transform="translate(32,48)"/>
<path d="M0 0 C0.99 0.33 1.98 0.66 3 1 C1.02 3.97 1.02 3.97 -1 7 C-1.33 6.34 -1.66 5.68 -2 5 C-2.66 5 -3.32 5 -4 5 C-4 4.34 -4 3.68 -4 3 C-3.34 3 -2.68 3 -2 3 C-2 2.34 -2 1.68 -2 1 C-1.34 0.67 -0.68 0.34 0 0 Z " fill="#465864" transform="translate(142,83)"/>
<path d="M0 0 C5.94 0.99 5.94 0.99 12 2 C11.34 2.66 10.68 3.32 10 4 C7.1796875 3.9765625 7.1796875 3.9765625 3.875 3.625 C2.77929688 3.51414062 1.68359375 3.40328125 0.5546875 3.2890625 C-0.28835937 3.19367187 -1.13140625 3.09828125 -2 3 C-1.34 2.01 -0.68 1.02 0 0 Z " fill="#163146" transform="translate(45,26)"/>
<path d="M0 0 C0.33 0.66 0.66 1.32 1 2 C-1.64 2 -4.28 2 -7 2 C-7.66 3.32 -8.32 4.64 -9 6 C-9.66 4.68 -10.32 3.36 -11 2 C-9.33657163 0.33657163 -7.2174291 0.63951903 -4.9375 0.4375 C-3.55884766 0.31181641 -3.55884766 0.31181641 -2.15234375 0.18359375 C-1.44207031 0.12300781 -0.73179688 0.06242188 0 0 Z " fill="#2E4356" transform="translate(99,172)"/>
<path d="M0 0 C0.99 1.32 1.98 2.64 3 4 C1.35 4.66 -0.3 5.32 -2 6 C-2 5.34 -2 4.68 -2 4 C-2.66 3.67 -3.32 3.34 -4 3 C-2.68 2.01 -1.36 1.02 0 0 Z " fill="#294D5C" transform="translate(58,70)"/>
<path d="M0 0 C2 3 2 3 1.625 5.1875 C1.41875 5.785625 1.2125 6.38375 1 7 C0.34 7 -0.32 7 -1 7 C-1.33 7.66 -1.66 8.32 -2 9 C-2.66 8.67 -3.32 8.34 -4 8 C-2.66666667 5.33333333 -1.33333333 2.66666667 0 0 Z " fill="#324250" transform="translate(114,31)"/>
<path d="M0 0 C1.65 0.99 3.3 1.98 5 3 C4.67 4.65 4.34 6.3 4 8 C3.34 8 2.68 8 2 8 C1.34 5.36 0.68 2.72 0 0 Z " fill="#1A2E43" transform="translate(17,25)"/>
<path d="M0 0 C0.66 0.66 1.32 1.32 2 2 C1.34 2 0.68 2 0 2 C0 1.34 0 0.68 0 0 Z M-3 1 C-1.9375 2.875 -1.9375 2.875 -1 5 C-1.33 5.66 -1.66 6.32 -2 7 C-4.5625 7.625 -4.5625 7.625 -7 8 C-5.68 5.69 -4.36 3.38 -3 1 Z " fill="#919798" transform="translate(109,80)"/>
<path d="M0 0 C0 1.65 0 3.3 0 5 C-1.32 5.33 -2.64 5.66 -4 6 C-4.33 4.68 -4.66 3.36 -5 2 C-2 0 -2 0 0 0 Z " fill="#172A3A" transform="translate(101,55)"/>
<path d="M0 0 C2.79872437 2.52788007 4.45773019 4.20411134 5 8 C4.01 8.495 4.01 8.495 3 9 C1.5 7.875 1.5 7.875 0 6 C-0.1875 2.8125 -0.1875 2.8125 0 0 Z " fill="#879797" transform="translate(68,49)"/>
<path d="M0 0 C0.66 0 1.32 0 2 0 C2.66 1.65 3.32 3.3 4 5 C3.34 5.66 2.68 6.32 2 7 C0.4375 5.1875 0.4375 5.1875 -1 3 C-0.67 2.01 -0.34 1.02 0 0 Z " fill="#394D58" transform="translate(50,79)"/>
<path d="M0 0 C1.43088528 2.86177057 0.59991697 4.93375773 0 8 C-1.65 8.33 -3.3 8.66 -5 9 C-3.7508258 5.54074837 -2.32472205 2.85306797 0 0 Z " fill="#627781" transform="translate(116,103)"/>
<path d="M0 0 C0.99 0.33 1.98 0.66 3 1 C4.1875 3.5625 4.1875 3.5625 5 6 C4.34 6.66 3.68 7.32 3 8 C2.71125 7.38125 2.4225 6.7625 2.125 6.125 C1.06279958 3.86674235 1.06279958 3.86674235 -1 2 C-0.67 1.34 -0.34 0.68 0 0 Z " fill="#727D7E" transform="translate(83,75)"/>
<path d="M0 0 C0.66 0.99 1.32 1.98 2 3 C-0.64 4.65 -3.28 6.3 -6 8 C-4.21844267 4.43688534 -2.83236991 2.64354525 0 0 Z " fill="#889090" transform="translate(116,68)"/>
<path d="M0 0 C0.66 0 1.32 0 2 0 C3.42944945 2.35438733 4.08661261 3.48032433 3.625 6.25 C3.41875 6.8275 3.2125 7.405 3 8 C2.34 7.67 1.68 7.34 1 7 C0.59270772 4.67843403 0.25561323 2.3431213 0 0 Z " fill="#1F3340" transform="translate(62,78)"/>
<path d="M0 0 C0.33 0.66 0.66 1.32 1 2 C0.0625 4.125 0.0625 4.125 -1 6 C-2.65 6 -4.3 6 -6 6 C-4 4 -2 2 0 0 Z " fill="#717E7F" transform="translate(116,71)"/>
<path d="M0 0 C0.99 0.33 1.98 0.66 3 1 C1.68 3.31 0.36 5.62 -1 8 C-1.66 7.01 -2.32 6.02 -3 5 C-2.01 3.35 -1.02 1.7 0 0 Z " fill="#475965" transform="translate(107,64)"/>
<path d="M0 0 C0.66 0 1.32 0 2 0 C1.67 2.31 1.34 4.62 1 7 C-0.32 6.67 -1.64 6.34 -3 6 C-2.01 4.02 -1.02 2.04 0 0 Z " fill="#0D2535" transform="translate(174,30)"/>
<path d="M0 0 C0.99 0 1.98 0 3 0 C3 0.66 3 1.32 3 2 C3.99 2.33 4.98 2.66 6 3 C2.37 3 -1.26 3 -5 3 C-3.68 2.34 -2.36 1.68 -1 1 C-0.67 0.67 -0.34 0.34 0 0 Z " fill="#465864" transform="translate(144,28)"/>
<path d="M0 0 C4.42857143 5.14285714 4.42857143 5.14285714 5 9 C2 8 2 8 0.8125 6.1875 C0 4 0 4 0 0 Z " fill="#38515C" transform="translate(78,102)"/>
<path d="M0 0 C0.99 0 1.98 0 3 0 C2.75 1.875 2.75 1.875 2 4 C-0.0625 5.25 -0.0625 5.25 -2 6 C-1.34 4.02 -0.68 2.04 0 0 Z " fill="#939E9E" transform="translate(126,48)"/>
<path d="M0 0 C2.31 0 4.62 0 7 0 C6.67 0.99 6.34 1.98 6 3 C3.03 2.505 3.03 2.505 0 2 C0 1.34 0 0.68 0 0 Z " fill="#162F42" transform="translate(61,28)"/>
</svg>
